<svg xmlns="http://www.w3.org/2000/svg" xmlns:xlink="http://www.w3.org/1999/xlink" contentStyleType="text/css" data-diagram-type="MINDMAP" height="1936px" preserveAspectRatio="none" style="width:1699px;height:1936px;background:#FFFFFF;" version="1.1" viewBox="0 0 1699 1936" width="1699px" zoomAndPan="magnify"><defs/><g><rect fill="#F1F1F1" height="36.2969" rx="12.5" ry="12.5" style="stroke:#181818;stroke-width:1.5;" width="119.0527" x="10" y="948.8984"/><text fill="#000000" font-family="sans-serif" font-size="14" lengthAdjust="spacing" textLength="99.0527" x="20" y="971.8936">Site Mind Map</text><rect fill="#F1F1F1" height="36.2969" rx="12.5" ry="12.5" style="stroke:#181818;stroke-width:1.5;" width="196.0322" x="179.0527" y="582.9688"/><text fill="#000000" font-family="sans-serif" font-size="14" lengthAdjust="spacing" textLength="176.0322" x="189.0527" y="605.9639">Home - 340B Price Guide</text><rect fill="#F1F1F1" height="36.2969" rx="12.5" ry="12.5" style="stroke:#181818;stroke-width:1.5;" width="55.9639" x="425.085" y="385.9297"/><text fill="#000000" font-family="sans-serif" font-size="14" lengthAdjust="spacing" textLength="35.9639" x="435.085" y="408.9248">Links</text><rect fill="#F1F1F1" height="36.2969" rx="12.5" ry="12.5" style="stroke:#181818;stroke-width:1.5;" width="250.7266" x="531.0488" y="20"/><text fill="#000000" font-family="sans-serif" font-size="14" lengthAdjust="spacing" textLength="230.7266" x="541.0488" y="42.9951">https://www.340bpriceguide.net/</text><path d="M481.0488,404.0781 L491.0488,404.0781 C506.0488,404.0781 506.0488,38.1484 521.0488,38.1484 L531.0488,38.1484" fill="none" style="stroke:#181818;stroke-width:1;"/><rect fill="#F1F1F1" height="36.2969" rx="12.5" ry="12.5" style="stroke:#181818;stroke-width:1.5;" width="338.1992" x="531.0488" y="76.2969"/><text fill="#000000" font-family="sans-serif" font-size="14" lengthAdjust="spacing" textLength="318.1992" x="541.0488" y="99.292">https://www.340bpriceguide.net/340b-search</text><path d="M481.0488,404.0781 L491.0488,404.0781 C506.0488,404.0781 506.0488,94.4453 521.0488,94.4453 L531.0488,94.4453" fill="none" style="stroke:#181818;stroke-width:1;"/><rect fill="#F1F1F1" height="36.2969" rx="12.5" ry="12.5" style="stroke:#181818;stroke-width:1.5;" width="312.3389" x="531.0488" y="132.5938"/><text fill="#000000" font-family="sans-serif" font-size="14" lengthAdjust="spacing" textLength="292.3389" x="541.0488" y="155.5889">https://www.340bpriceguide.net/about-us</text><path d="M481.0488,404.0781 L491.0488,404.0781 C506.0488,404.0781 506.0488,150.7422 521.0488,150.7422 L531.0488,150.7422" fill="none" style="stroke:#181818;stroke-width:1;"/><rect fill="#F1F1F1" height="36.2969" rx="12.5" ry="12.5" style="stroke:#181818;stroke-width:1.5;" width="343.2168" x="531.0488" y="188.8906"/><text fill="#000000" font-family="sans-serif" font-size="14" lengthAdjust="spacing" textLength="323.2168" x="541.0488" y="211.8857">https://www.340bpriceguide.net/articles-news</text><path d="M481.0488,404.0781 L491.0488,404.0781 C506.0488,404.0781 506.0488,207.0391 521.0488,207.0391 L531.0488,207.0391" fill="none" style="stroke:#181818;stroke-width:1;"/><rect fill="#F1F1F1" height="36.2969" rx="12.5" ry="12.5" style="stroke:#181818;stroke-width:1.5;" width="562.2744" x="531.0488" y="245.1875"/><text fill="#000000" font-family="sans-serif" font-size="14" lengthAdjust="spacing" textLength="542.2744" x="541.0488" y="268.1826">https://www.340bpriceguide.net/articles-news/126-weekly-product-shortages</text><path d="M481.0488,404.0781 L491.0488,404.0781 C506.0488,404.0781 506.0488,263.3359 521.0488,263.3359 L531.0488,263.3359" fill="none" style="stroke:#181818;stroke-width:1;"/><rect fill="#F1F1F1" height="36.2969" rx="12.5" ry="12.5" style="stroke:#181818;stroke-width:1.5;" width="462.0869" x="531.0488" y="301.4844"/><text fill="#000000" font-family="sans-serif" font-size="14" lengthAdjust="spacing" textLength="442.0869" x="541.0488" y="324.4795">https://www.340bpriceguide.net/articles-news/50-what-is-340b</text><path d="M481.0488,404.0781 L491.0488,404.0781 C506.0488,404.0781 506.0488,319.6328 521.0488,319.6328 L531.0488,319.6328" fill="none" style="stroke:#181818;stroke-width:1;"/><rect fill="#F1F1F1" height="36.2969" rx="12.5" ry="12.5" style="stroke:#181818;stroke-width:1.5;" width="460.8154" x="531.0488" y="357.7813"/><text fill="#000000" font-family="sans-serif" font-size="14" lengthAdjust="spacing" textLength="440.8154" x="541.0488" y="380.7764">https://www.340bpriceguide.net/client-login?view=registration</text><path d="M481.0488,404.0781 L491.0488,404.0781 C506.0488,404.0781 506.0488,375.9297 521.0488,375.9297 L531.0488,375.9297" fill="none" style="stroke:#181818;stroke-width:1;"/><rect fill="#F1F1F1" height="36.2969" rx="12.5" ry="12.5" style="stroke:#181818;stroke-width:1.5;" width="429.3906" x="531.0488" y="414.0781"/><text fill="#000000" font-family="sans-serif" font-size="14" lengthAdjust="spacing" textLength="409.3906" x="541.0488" y="437.0732">https://www.340bpriceguide.net/client-login?view=remind</text><path d="M481.0488,404.0781 L491.0488,404.0781 C506.0488,404.0781 506.0488,432.2266 521.0488,432.2266 L531.0488,432.2266" fill="none" style="stroke:#181818;stroke-width:1;"/><rect fill="#F1F1F1" height="36.2969" rx="12.5" ry="12.5" style="stroke:#181818;stroke-width:1.5;" width="415.5" x="531.0488" y="470.375"/><text fill="#000000" font-family="sans-serif" font-size="14" lengthAdjust="spacing" textLength="395.5" x="541.0488" y="493.3701">https://www.340bpriceguide.net/client-login?view=reset</text><path d="M481.0488,404.0781 L491.0488,404.0781 C506.0488,404.0781 506.0488,488.5234 521.0488,488.5234 L531.0488,488.5234" fill="none" style="stroke:#181818;stroke-width:1;"/><rect fill="#F1F1F1" height="36.2969" rx="12.5" ry="12.5" style="stroke:#181818;stroke-width:1.5;" width="324.3359" x="531.0488" y="526.6719"/><text fill="#000000" font-family="sans-serif" font-size="14" lengthAdjust="spacing" textLength="304.3359" x="541.0488" y="549.667">https://www.340bpriceguide.net/contact-us</text><path d="M481.0488,404.0781 L491.0488,404.0781 C506.0488,404.0781 506.0488,544.8203 521.0488,544.8203 L531.0488,544.8203" fill="none" style="stroke:#181818;stroke-width:1;"/><rect fill="#F1F1F1" height="36.2969" rx="12.5" ry="12.5" style="stroke:#181818;stroke-width:1.5;" width="320.3711" x="531.0488" y="582.9688"/><text fill="#000000" font-family="sans-serif" font-size="14" lengthAdjust="spacing" textLength="300.3711" x="541.0488" y="605.9639">https://www.340bpriceguide.net/index.php</text><path d="M481.0488,404.0781 L491.0488,404.0781 C506.0488,404.0781 506.0488,601.1172 521.0488,601.1172 L531.0488,601.1172" fill="none" style="stroke:#181818;stroke-width:1;"/><rect fill="#F1F1F1" height="36.2969" rx="12.5" ry="12.5" style="stroke:#181818;stroke-width:1.5;" width="386.7002" x="531.0488" y="639.2656"/><text fill="#000000" font-family="sans-serif" font-size="14" lengthAdjust="spacing" textLength="366.7002" x="541.0488" y="662.2607">https://www.340bpriceguide.net/index.php/about-us</text><path d="M481.0488,404.0781 L491.0488,404.0781 C506.0488,404.0781 506.0488,657.4141 521.0488,657.4141 L531.0488,657.4141" fill="none" style="stroke:#181818;stroke-width:1;"/><rect fill="#F1F1F1" height="36.2969" rx="12.5" ry="12.5" style="stroke:#181818;stroke-width:1.5;" width="417.5781" x="531.0488" y="695.5625"/><text fill="#000000" font-family="sans-serif" font-size="14" lengthAdjust="spacing" textLength="397.5781" x="541.0488" y="718.5576">https://www.340bpriceguide.net/index.php/articles-news</text><path d="M481.0488,404.0781 L491.0488,404.0781 C506.0488,404.0781 506.0488,713.7109 521.0488,713.7109 L531.0488,713.7109" fill="none" style="stroke:#181818;stroke-width:1;"/><rect fill="#F1F1F1" height="36.2969" rx="12.5" ry="12.5" style="stroke:#181818;stroke-width:1.5;" width="398.6973" x="531.0488" y="751.8594"/><text fill="#000000" font-family="sans-serif" font-size="14" lengthAdjust="spacing" textLength="378.6973" x="541.0488" y="774.8545">https://www.340bpriceguide.net/index.php/contact-us</text><path d="M481.0488,404.0781 L491.0488,404.0781 C506.0488,404.0781 506.0488,770.0078 521.0488,770.0078 L531.0488,770.0078" fill="none" style="stroke:#181818;stroke-width:1;"/><path d="M375.085,601.1172 L385.085,601.1172 C400.085,601.1172 400.085,404.0781 415.085,404.0781 L425.085,404.0781" fill="none" style="stroke:#181818;stroke-width:1;"/><rect fill="#F1F1F1" height="36.2969" rx="12.5" ry="12.5" style="stroke:#181818;stroke-width:1.5;" width="63.3057" x="425.085" y="977.0469"/><text fill="#000000" font-family="sans-serif" font-size="14" lengthAdjust="spacing" textLength="43.3057" x="435.085" y="1000.042">Forms</text><rect fill="#F1F1F1" height="36.2969" rx="12.5" ry="12.5" style="stroke:#181818;stroke-width:1.5;" width="242.4482" x="538.3906" y="808.1563"/><text fill="#000000" font-family="sans-serif" font-size="14" lengthAdjust="spacing" textLength="222.4482" x="548.3906" y="831.1514">Form 1: Action=/, Method=post</text><rect fill="#F1F1F1" height="36.2969" rx="12.5" ry="12.5" style="stroke:#181818;stroke-width:1.5;" width="417.5098" x="830.8389" y="808.1563"/><text fill="#000000" font-family="sans-serif" font-size="14" lengthAdjust="spacing" textLength="397.5098" x="840.8389" y="831.1514">Input: name=searchword, type=text, placeholder=None</text><rect fill="#F1F1F1" height="36.2969" rx="12.5" ry="12.5" style="stroke:#181818;stroke-width:1.5;" width="102.7695" x="1298.3486" y="808.1563"/><text fill="#000000" font-family="sans-serif" font-size="14" lengthAdjust="spacing" textLength="82.7695" x="1308.3486" y="831.1514">Buttons: Go</text><path d="M1248.3486,826.3047 L1258.3486,826.3047 C1273.3486,826.3047 1273.3486,826.3047 1288.3486,826.3047 L1298.3486,826.3047" fill="none" style="stroke:#181818;stroke-width:1;"/><path d="M780.8389,826.3047 L790.8389,826.3047 C805.8389,826.3047 805.8389,826.3047 820.8389,826.3047 L830.8389,826.3047" fill="none" style="stroke:#181818;stroke-width:1;"/><path d="M488.3906,995.1953 L498.3906,995.1953 C513.3906,995.1953 513.3906,826.3047 528.3906,826.3047 L538.3906,826.3047" fill="none" style="stroke:#181818;stroke-width:1;"/><rect fill="#F1F1F1" height="36.2969" rx="12.5" ry="12.5" style="stroke:#181818;stroke-width:1.5;" width="242.4482" x="538.3906" y="977.0469"/><text fill="#000000" font-family="sans-serif" font-size="14" lengthAdjust="spacing" textLength="222.4482" x="548.3906" y="1000.042">Form 2: Action=/, Method=post</text><rect fill="#F1F1F1" height="36.2969" rx="12.5" ry="12.5" style="stroke:#181818;stroke-width:1.5;" width="406.2783" x="830.8389" y="864.4531"/><text fill="#000000" font-family="sans-serif" font-size="14" lengthAdjust="spacing" textLength="386.2783" x="840.8389" y="887.4482">Input: name=username, type=text, placeholder=None</text><path d="M780.8389,995.1953 L790.8389,995.1953 C805.8389,995.1953 805.8389,882.6016 820.8389,882.6016 L830.8389,882.6016" fill="none" style="stroke:#181818;stroke-width:1;"/><rect fill="#F1F1F1" height="36.2969" rx="12.5" ry="12.5" style="stroke:#181818;stroke-width:1.5;" width="441.5859" x="830.8389" y="920.75"/><text fill="#000000" font-family="sans-serif" font-size="14" lengthAdjust="spacing" textLength="421.5859" x="840.8389" y="943.7451">Input: name=password, type=password, placeholder=None</text><path d="M780.8389,995.1953 L790.8389,995.1953 C805.8389,995.1953 805.8389,938.8984 820.8389,938.8984 L830.8389,938.8984" fill="none" style="stroke:#181818;stroke-width:1;"/><rect fill="#F1F1F1" height="36.2969" rx="12.5" ry="12.5" style="stroke:#181818;stroke-width:1.5;" width="448.4014" x="830.8389" y="977.0469"/><text fill="#000000" font-family="sans-serif" font-size="14" lengthAdjust="spacing" textLength="428.4014" x="840.8389" y="1000.042">Input: name=remember, type=checkbox, placeholder=None</text><path d="M780.8389,995.1953 L790.8389,995.1953 C805.8389,995.1953 805.8389,995.1953 820.8389,995.1953 L830.8389,995.1953" fill="none" style="stroke:#181818;stroke-width:1;"/><rect fill="#F1F1F1" height="36.2969" rx="12.5" ry="12.5" style="stroke:#181818;stroke-width:1.5;" width="405.8955" x="830.8389" y="1033.3438"/><text fill="#000000" font-family="sans-serif" font-size="14" lengthAdjust="spacing" textLength="385.8955" x="840.8389" y="1056.3389">Input: name=Submit, type=submit, placeholder=None</text><path d="M780.8389,995.1953 L790.8389,995.1953 C805.8389,995.1953 805.8389,1051.4922 820.8389,1051.4922 L830.8389,1051.4922" fill="none" style="stroke:#181818;stroke-width:1;"/><rect fill="#F1F1F1" height="36.2969" rx="12.5" ry="12.5" style="stroke:#181818;stroke-width:1.5;" width="405.8955" x="830.8389" y="1089.6406"/><text fill="#000000" font-family="sans-serif" font-size="14" lengthAdjust="spacing" textLength="385.8955" x="840.8389" y="1112.6357">Input: name=Submit, type=submit, placeholder=None</text><rect fill="#F1F1F1" height="36.2969" rx="12.5" ry="12.5" style="stroke:#181818;stroke-width:1.5;" width="258.0479" x="1286.7344" y="1089.6406"/><text fill="#000000" font-family="sans-serif" font-size="14" lengthAdjust="spacing" textLength="238.0479" x="1296.7344" y="1112.6357">Buttons: Log in, Sign up / i&#8217;m New</text><path d="M1236.7344,1107.7891 L1246.7344,1107.7891 C1261.7344,1107.7891 1261.7344,1107.7891 1276.7344,1107.7891 L1286.7344,1107.7891" fill="none" style="stroke:#181818;stroke-width:1;"/><path d="M780.8389,995.1953 L790.8389,995.1953 C805.8389,995.1953 805.8389,1107.7891 820.8389,1107.7891 L830.8389,1107.7891" fill="none" style="stroke:#181818;stroke-width:1;"/><path d="M488.3906,995.1953 L498.3906,995.1953 C513.3906,995.1953 513.3906,995.1953 528.3906,995.1953 L538.3906,995.1953" fill="none" style="stroke:#181818;stroke-width:1;"/><rect fill="#F1F1F1" height="36.2969" rx="12.5" ry="12.5" style="stroke:#181818;stroke-width:1.5;" width="272.2666" x="538.3906" y="1145.9375"/><text fill="#000000" font-family="sans-serif" font-size="14" lengthAdjust="spacing" textLength="252.2666" x="548.3906" y="1168.9326">Form 3: Action=None, Method=GET</text><rect fill="#F1F1F1" height="36.2969" rx="12.5" ry="12.5" style="stroke:#181818;stroke-width:1.5;" width="514.1631" x="860.6572" y="1145.9375"/><text fill="#000000" font-family="sans-serif" font-size="14" lengthAdjust="spacing" textLength="494.1631" x="870.6572" y="1168.9326">Input: name=searchword, type=text, placeholder=Enter a medication</text><rect fill="#F1F1F1" height="36.2969" rx="12.5" ry="12.5" style="stroke:#181818;stroke-width:1.5;" width="211.8232" x="1424.8203" y="1145.9375"/><text fill="#000000" font-family="sans-serif" font-size="14" lengthAdjust="spacing" textLength="191.8232" x="1434.8203" y="1168.9326">Buttons: FIND 340B PRICES</text><path d="M1374.8203,1164.0859 L1384.8203,1164.0859 C1399.8203,1164.0859 1399.8203,1164.0859 1414.8203,1164.0859 L1424.8203,1164.0859" fill="none" style="stroke:#181818;stroke-width:1;"/><path d="M810.6572,1164.0859 L820.6572,1164.0859 C835.6572,1164.0859 835.6572,1164.0859 850.6572,1164.0859 L860.6572,1164.0859" fill="none" style="stroke:#181818;stroke-width:1;"/><path d="M488.3906,995.1953 L498.3906,995.1953 C513.3906,995.1953 513.3906,1164.0859 528.3906,1164.0859 L538.3906,1164.0859" fill="none" style="stroke:#181818;stroke-width:1;"/><path d="M375.085,601.1172 L385.085,601.1172 C400.085,601.1172 400.085,995.1953 415.085,995.1953 L425.085,995.1953" fill="none" style="stroke:#181818;stroke-width:1;"/><path d="M129.0527,967.0469 L139.0527,967.0469 C154.0527,967.0469 154.0527,601.1172 169.0527,601.1172 L179.0527,601.1172" fill="none" style="stroke:#181818;stroke-width:1;"/><rect fill="#F1F1F1" height="36.2969" rx="12.5" ry="12.5" style="stroke:#181818;stroke-width:1.5;" width="231.1484" x="179.0527" y="1540.0156"/><text fill="#000000" font-family="sans-serif" font-size="14" lengthAdjust="spacing" textLength="211.1484" x="189.0527" y="1563.0107">Contact Us - 340B Price Guide</text><rect fill="#F1F1F1" height="36.2969" rx="12.5" ry="12.5" style="stroke:#181818;stroke-width:1.5;" width="55.9639" x="460.2012" y="1540.0156"/><text fill="#000000" font-family="sans-serif" font-size="14" lengthAdjust="spacing" textLength="35.9639" x="470.2012" y="1563.0107">Links</text><rect fill="#F1F1F1" height="36.2969" rx="12.5" ry="12.5" style="stroke:#181818;stroke-width:1.5;" width="338.1992" x="566.165" y="1202.2344"/><text fill="#000000" font-family="sans-serif" font-size="14" lengthAdjust="spacing" textLength="318.1992" x="576.165" y="1225.2295">https://www.340bpriceguide.net/340b-search</text><path d="M516.165,1558.1641 L526.165,1558.1641 C541.165,1558.1641 541.165,1220.3828 556.165,1220.3828 L566.165,1220.3828" fill="none" style="stroke:#181818;stroke-width:1;"/><rect fill="#F1F1F1" height="36.2969" rx="12.5" ry="12.5" style="stroke:#181818;stroke-width:1.5;" width="312.3389" x="566.165" y="1258.5313"/><text fill="#000000" font-family="sans-serif" font-size="14" lengthAdjust="spacing" textLength="292.3389" x="576.165" y="1281.5264">https://www.340bpriceguide.net/about-us</text><path d="M516.165,1558.1641 L526.165,1558.1641 C541.165,1558.1641 541.165,1276.6797 556.165,1276.6797 L566.165,1276.6797" fill="none" style="stroke:#181818;stroke-width:1;"/><rect fill="#F1F1F1" height="36.2969" rx="12.5" ry="12.5" style="stroke:#181818;stroke-width:1.5;" width="343.2168" x="566.165" y="1314.8281"/><text fill="#000000" font-family="sans-serif" font-size="14" lengthAdjust="spacing" textLength="323.2168" x="576.165" y="1337.8232">https://www.340bpriceguide.net/articles-news</text><path d="M516.165,1558.1641 L526.165,1558.1641 C541.165,1558.1641 541.165,1332.9766 556.165,1332.9766 L566.165,1332.9766" fill="none" style="stroke:#181818;stroke-width:1;"/><rect fill="#F1F1F1" height="36.2969" rx="12.5" ry="12.5" style="stroke:#181818;stroke-width:1.5;" width="460.8154" x="566.165" y="1371.125"/><text fill="#000000" font-family="sans-serif" font-size="14" lengthAdjust="spacing" textLength="440.8154" x="576.165" y="1394.1201">https://www.340bpriceguide.net/client-login?view=registration</text><path d="M516.165,1558.1641 L526.165,1558.1641 C541.165,1558.1641 541.165,1389.2734 556.165,1389.2734 L566.165,1389.2734" fill="none" style="stroke:#181818;stroke-width:1;"/><rect fill="#F1F1F1" height="36.2969" rx="12.5" ry="12.5" style="stroke:#181818;stroke-width:1.5;" width="429.3906" x="566.165" y="1427.4219"/><text fill="#000000" font-family="sans-serif" font-size="14" lengthAdjust="spacing" textLength="409.3906" x="576.165" y="1450.417">https://www.340bpriceguide.net/client-login?view=remind</text><path d="M516.165,1558.1641 L526.165,1558.1641 C541.165,1558.1641 541.165,1445.5703 556.165,1445.5703 L566.165,1445.5703" fill="none" style="stroke:#181818;stroke-width:1;"/><rect fill="#F1F1F1" height="36.2969" rx="12.5" ry="12.5" style="stroke:#181818;stroke-width:1.5;" width="415.5" x="566.165" y="1483.7188"/><text fill="#000000" font-family="sans-serif" font-size="14" lengthAdjust="spacing" textLength="395.5" x="576.165" y="1506.7139">https://www.340bpriceguide.net/client-login?view=reset</text><path d="M516.165,1558.1641 L526.165,1558.1641 C541.165,1558.1641 541.165,1501.8672 556.165,1501.8672 L566.165,1501.8672" fill="none" style="stroke:#181818;stroke-width:1;"/><rect fill="#F1F1F1" height="36.2969" rx="12.5" ry="12.5" style="stroke:#181818;stroke-width:1.5;" width="1121.584" x="566.165" y="1540.0156"/><text fill="#000000" font-family="sans-serif" font-size="14" lengthAdjust="spacing" textLength="1101.584" x="576.165" y="1563.0107">https://www.340bpriceguide.net/component/mailto/?tmpl=component&amp;template=rt_chapelco_child&amp;link=20a9a98bd3685953cd19aae8554484753618b4d3</text><path d="M516.165,1558.1641 L526.165,1558.1641 C541.165,1558.1641 541.165,1558.1641 556.165,1558.1641 L566.165,1558.1641" fill="none" style="stroke:#181818;stroke-width:1;"/><rect fill="#F1F1F1" height="36.2969" rx="12.5" ry="12.5" style="stroke:#181818;stroke-width:1.5;" width="324.3359" x="566.165" y="1596.3125"/><text fill="#000000" font-family="sans-serif" font-size="14" lengthAdjust="spacing" textLength="304.3359" x="576.165" y="1619.3076">https://www.340bpriceguide.net/contact-us</text><path d="M516.165,1558.1641 L526.165,1558.1641 C541.165,1558.1641 541.165,1614.4609 556.165,1614.4609 L566.165,1614.4609" fill="none" style="stroke:#181818;stroke-width:1;"/><rect fill="#F1F1F1" height="36.2969" rx="12.5" ry="12.5" style="stroke:#181818;stroke-width:1.5;" width="519.0508" x="566.165" y="1652.6094"/><text fill="#000000" font-family="sans-serif" font-size="14" lengthAdjust="spacing" textLength="499.0508" x="576.165" y="1675.6045">https://www.340bpriceguide.net/contact-us?tmpl=component&amp;print=1</text><path d="M516.165,1558.1641 L526.165,1558.1641 C541.165,1558.1641 541.165,1670.7578 556.165,1670.7578 L566.165,1670.7578" fill="none" style="stroke:#181818;stroke-width:1;"/><rect fill="#F1F1F1" height="36.2969" rx="12.5" ry="12.5" style="stroke:#181818;stroke-width:1.5;" width="320.3711" x="566.165" y="1708.9063"/><text fill="#000000" font-family="sans-serif" font-size="14" lengthAdjust="spacing" textLength="300.3711" x="576.165" y="1731.9014">https://www.340bpriceguide.net/index.php</text><path d="M516.165,1558.1641 L526.165,1558.1641 C541.165,1558.1641 541.165,1727.0547 556.165,1727.0547 L566.165,1727.0547" fill="none" style="stroke:#181818;stroke-width:1;"/><rect fill="#F1F1F1" height="36.2969" rx="12.5" ry="12.5" style="stroke:#181818;stroke-width:1.5;" width="386.7002" x="566.165" y="1765.2031"/><text fill="#000000" font-family="sans-serif" font-size="14" lengthAdjust="spacing" textLength="366.7002" x="576.165" y="1788.1982">https://www.340bpriceguide.net/index.php/about-us</text><path d="M516.165,1558.1641 L526.165,1558.1641 C541.165,1558.1641 541.165,1783.3516 556.165,1783.3516 L566.165,1783.3516" fill="none" style="stroke:#181818;stroke-width:1;"/><rect fill="#F1F1F1" height="36.2969" rx="12.5" ry="12.5" style="stroke:#181818;stroke-width:1.5;" width="417.5781" x="566.165" y="1821.5"/><text fill="#000000" font-family="sans-serif" font-size="14" lengthAdjust="spacing" textLength="397.5781" x="576.165" y="1844.4951">https://www.340bpriceguide.net/index.php/articles-news</text><path d="M516.165,1558.1641 L526.165,1558.1641 C541.165,1558.1641 541.165,1839.6484 556.165,1839.6484 L566.165,1839.6484" fill="none" style="stroke:#181818;stroke-width:1;"/><rect fill="#F1F1F1" height="36.2969" rx="12.5" ry="12.5" style="stroke:#181818;stroke-width:1.5;" width="398.6973" x="566.165" y="1877.7969"/><text fill="#000000" font-family="sans-serif" font-size="14" lengthAdjust="spacing" textLength="378.6973" x="576.165" y="1900.792">https://www.340bpriceguide.net/index.php/contact-us</text><path d="M516.165,1558.1641 L526.165,1558.1641 C541.165,1558.1641 541.165,1895.9453 556.165,1895.9453 L566.165,1895.9453" fill="none" style="stroke:#181818;stroke-width:1;"/><path d="M410.2012,1558.1641 L420.2012,1558.1641 C435.2012,1558.1641 435.2012,1558.1641 450.2012,1558.1641 L460.2012,1558.1641" fill="none" style="stroke:#181818;stroke-width:1;"/><rect fill="#F1F1F1" height="36.2969" rx="12.5" ry="12.5" style="stroke:#181818;stroke-width:1.5;" width="63.3057" x="460.2012" y="1596.3125"/><text fill="#000000" font-family="sans-serif" font-size="14" lengthAdjust="spacing" textLength="43.3057" x="470.2012" y="1619.3076">Forms</text><path d="M410.2012,1558.1641 L420.2012,1558.1641 C435.2012,1558.1641 435.2012,1614.4609 450.2012,1614.4609 L460.2012,1614.4609" fill="none" style="stroke:#181818;stroke-width:1;"/><path d="M129.0527,967.0469 L139.0527,967.0469 C154.0527,967.0469 154.0527,1558.1641 169.0527,1558.1641 L179.0527,1558.1641" fill="none" style="stroke:#181818;stroke-width:1;"/><!--SRC=[vLRDRjim3BxxANWgsY2EyxyaWD6kRPgbIxgYQNeTP9kpXTYI8D5nUzjhxFNs99EHj4btShCDsB0RANqVHP6V29qPOfeoBgACASUfmO8JmjpwCBSBjHfya1c22vrkynnkDGyH9ZcFq6xLOCR5ofHM3H8YPKQULnH5ms83LKBZ4jaGI5ubKBda6cGwJ2hXMI1pSlDg6TXhyZ15umei3c1uhNRVBH1NwPEhj8poa5oJI4qinaF2zPfkaJ1okN5BRAK8OSfHa9lAc8lJDSV2rnXpGveHb-BW46Nt3oORf6fSAOY5bRjbKyB7XahKsz1layGUxStYs75VtmokfCws8KeJMYDu7vRzyRqwp94I6VbAcatLQZ0LAgSH29QXlv5-8NLK1tfIw1C-KXrKoa9CP1gXzc-am0sp1kSvaHHc11EvTrwx-dcvGLqQ5KvxnLFCcBqiTsu5hfKRPW7gBJTCC5m5yh4ITv476QSjqsoTtylRg-fCni15tKx4M42km0F-_Ukt36wms2jtvwNSPP2NYa_6zuSrU2m8DJ38CEBXxbtl9tOrlRdSpkExwSLuuPHZ-cAZGbYQNn_MVzaS_hV7NgQiBWHv6UCfIU-KCfNwByj7XDPdP1y6VGuJfZ0DfJLu6Xsbjc5-kyc6R3W8eav_q1lsEc7K6ZA6Wrwlsnrqt_Kw_TOWw4QTFp64T_2VixP0GNxhlnZbpXdQtz7p3-asPOAMynciKHihFsWrsirshp48a5ZhU2bMGXO2obBn585uXYVEyUHs1aRcsZx8g5Gk3_9IkoVEDLipkCj5YHl19uNY-lBZymACnPfhAJ9RSkVwORu3zBlkEITOeBPfmCFSkSGlB4_9Ca8PSH6FO7b_vGwS6HDnRhye8q3XN4WRLp_PlSKF]--></g></svg>